<?xml version="1.0" standalone="no"?><!DOCTYPE svg PUBLIC "-//W3C//DTD SVG 1.1//EN" "http://www.w3.org/Graphics/SVG/1.1/DTD/svg11.dtd"><svg t="1587536811310" class="icon" viewBox="0 0 1024 1024" version="1.1" xmlns="http://www.w3.org/2000/svg" p-id="1857" xmlns:xlink="http://www.w3.org/1999/xlink" width="200" height="200"><defs><style type="text/css"></style></defs><path d="M876.99968 472.00256a32 32 0 0 1-32-32V136.00256c0-4.41856-3.57888-8.00256-8.00256-8.00256H186.99776c-4.41856 0-8.00256 3.584-8.00256 8.00256v752c0 4.41856 3.584 8.00256 8.00256 8.00256h288.9984a32 32 0 0 1 0 64H147.00032a32 32 0 0 1-32-32V96a32 32 0 0 1 32-32h729.99936a32 32 0 0 1 32 32v344.00256a32.00512 32.00512 0 0 1-32 32z" p-id="1858"></path><path d="M262.00064 269.99808h470.99904a32 32 0 0 1 0 64H262.00064a32 32 0 1 1 0-64zM266.99776 476.00128h211.99872a32 32 0 1 1 0 64H266.99776a32 32 0 0 1 0-64zM266.99776 681.99936h211.99872a32 32 0 0 1 0 64H266.99776a32 32 0 0 1 0-64zM570.99776 476.00128h44.00128a32 32 0 0 1 0 64h-44.00128a32.00512 32.00512 0 0 1 0-64z" p-id="1859"></path><path d="M725.94432 682.3168m-45.58336 0a45.58336 45.58336 0 1 0 91.16672 0 45.58336 45.58336 0 1 0-91.16672 0Z" p-id="1860"></path><path d="M851.73248 697.87648c-1.51552-3.03104-4.93568-4.93568-8.35584-4.93568h-63.4368l45.19424-88.1152c2.6624-4.17792 1.14688-9.11872-3.03104-11.776a10.51648 10.51648 0 0 0-4.94592-1.14688h-96.09216c-3.79904 0-7.21408 2.28352-8.7296 5.3248l-66.0992 153.82528c-1.8944 4.5568 0.37888 9.49248 5.3248 11.008 1.13664 0.37888 2.26816 0.75776 3.42016 0.75776h34.55488l-42.92096 125.34272c-1.8944 4.5568 4.5568 9.49248 9.11872 11.01312 6.46144 1.8944 10.63424 0.75776 14.0544-2.6624l181.17632-189.91104c1.90464-2.26816 2.28352-5.68832 0.768-8.72448z" p-id="1861"></path><path d="M686.88384 840.31488l31.90272-98.75968c1.90464-4.5568-0.75264-9.49248-5.30944-11.01312-1.13664-0.37888-2.28352-0.37888-3.42016-0.37888h-23.17312l45.96224-107.87328h55.07584l-37.60128 76.73344c-2.6624 4.1728-1.14688 9.10848 3.04128 11.77088 1.51552 0.75776 3.04128 1.14176 4.93568 1.14176h52.80256l-124.21632 128.37888z" p-id="1862"></path></svg>